<?xml version="1.0" encoding="UTF-8"?>
<svg xmlns="http://www.w3.org/2000/svg" viewBox="0 0 512 512">
  <rect width="512" height="512" fill="#FAFAF8"/>
  <path fill="#6A0F0F" d="M120,420 L180,280 L300,200 L400,140 L440,200 L480,280 L500,360 L460,380 L400,400 L320,430 L240,430 L180,400 L130,360 Z"/>
  <path fill="#FAFAF8" d="M340,250 C420,230 500,250 500,320 C500,380 440,410 380,410 C340,410 300,390 310,340 C320,290 300,270 340,250 Z"/>
  <path fill="#FAFAF8" d="M420,310 L440,340 L400,330 Z"/>
  <path fill="#FAFAF8" d="M380,350 L400,380 L370,370 Z"/>
  <rect x="360" y="220" width="20" height="10" fill="#FAFAF8"/>
</svg>
